<?xml version="1.0" encoding="utf-8"?>
<svg viewBox="0 0 500 500" xmlns="http://www.w3.org/2000/svg" xmlns:xlink="http://www.w3.org/1999/xlink" xmlns:bx="https://boxy-svg.com">
  <defs>
    <linearGradient id="gradient-1" bx:pinned="true">
      <stop offset="0" style="stop-color: rgb(96, 106, 151);"/>
      <stop offset="1" style="stop-color: rgb(80, 85, 134);"/>
    </linearGradient>
    <linearGradient id="gradient-2" bx:pinned="true">
      <stop offset="0" style="stop-color: rgb(103, 129, 154);"/>
      <stop offset="1" style="stop-color: rgb(132, 178, 169);"/>
    </linearGradient>
    <linearGradient id="gradient-1-0" gradientUnits="userSpaceOnUse" x1="260.441" y1="286.148" x2="260.441" y2="449.557" xlink:href="#gradient-1"/>
    <linearGradient id="gradient-2-0" gradientUnits="userSpaceOnUse" x1="76.084" y1="249.427" x2="76.084" y2="341.535" gradientTransform="matrix(0.912394, 0.409317, -0.227238, 0.506537, 37.68119, 126.04612)" xlink:href="#gradient-2"/>
    <linearGradient id="gradient-3" bx:pinned="true">
      <stop offset="0.047" style="stop-color: rgb(89, 94, 137);"/>
      <stop offset="1" style="stop-color: rgb(106, 129, 138);"/>
    </linearGradient>
    <linearGradient id="gradient-3-0" gradientUnits="userSpaceOnUse" x1="130.738" y1="109.757" x2="130.738" y2="227.109" gradientTransform="matrix(1.045279, 0, 0, 1.02097, -2.064352, -4.762471)" xlink:href="#gradient-3"/>
    <linearGradient id="gradient-4" bx:pinned="true">
      <stop offset="0" style="stop-color: rgb(193, 192, 224);"/>
      <stop offset="1" style="stop-color: rgb(196, 196, 228);"/>
    </linearGradient>
    <linearGradient id="gradient-5" bx:pinned="true">
      <stop offset="0" style="stop-color: rgb(124, 143, 167);"/>
      <stop offset="1" style="stop-color: rgb(82, 90, 145);"/>
    </linearGradient>
    <linearGradient id="gradient-6" bx:pinned="true">
      <stop offset="0" style="stop-color: rgb(118, 138, 179);"/>
      <stop offset="1" style="stop-color: rgb(125, 129, 178);"/>
    </linearGradient>
    <linearGradient id="gradient-7" bx:pinned="true">
      <stop offset="0" style="stop-color: rgb(168, 170, 208);"/>
      <stop offset="1" style="stop-color: rgb(194, 198, 230);"/>
    </linearGradient>
    <linearGradient id="gradient-4-0" gradientUnits="userSpaceOnUse" x1="380.667" y1="106.784" x2="380.667" y2="241.889" xlink:href="#gradient-4"/>
    <linearGradient id="gradient-5-0" gradientUnits="userSpaceOnUse" x1="182.541" y1="121.422" x2="182.541" y2="242.497" gradientTransform="matrix(-0.242166, -0.970245, 1.218959, -0.30425, -4.468908, 399.853462)" xlink:href="#gradient-5"/>
    <linearGradient id="gradient-6-0" gradientUnits="userSpaceOnUse" x1="218.834" y1="86.5" x2="218.834" y2="241.56" gradientTransform="matrix(0.234817, -0.972048, 0.898578, 0.217073, -10.985181, 278.141204)" xlink:href="#gradient-6"/>
    <linearGradient id="gradient-7-0" gradientUnits="userSpaceOnUse" x1="320.243" y1="96.393" x2="320.243" y2="241.633" gradientTransform="matrix(-0.856433, 0.516265, -0.165309, -0.274237, 614.435893, 12.047967)" xlink:href="#gradient-7"/>
    <linearGradient id="gradient-8" bx:pinned="true">
      <stop offset="0" style="stop-color: rgb(122, 153, 173);"/>
      <stop offset="1" style="stop-color: rgb(83, 81, 137);"/>
    </linearGradient>
    <linearGradient id="gradient-9" bx:pinned="true">
      <stop offset="0" style="stop-color: rgb(166, 163, 211);"/>
      <stop offset="1" style="stop-color: rgb(135, 136, 199);"/>
    </linearGradient>
    <linearGradient id="gradient-10" bx:pinned="true">
      <stop offset="0" style="stop-color: rgb(146, 164, 194);"/>
      <stop offset="1" style="stop-color: rgb(113, 124, 181);"/>
    </linearGradient>
    <linearGradient id="gradient-11" bx:pinned="true">
      <stop offset="0" style="stop-color: rgb(113, 147, 173);"/>
      <stop offset="1" style="stop-color: rgb(79, 108, 163);"/>
      <stop offset="1" style="stop-color: rgb(165, 165, 165);"/>
    </linearGradient>
    <linearGradient id="gradient-8-0" gradientUnits="userSpaceOnUse" x1="249.331" y1="192.96" x2="249.331" y2="311.987" gradientTransform="matrix(0.754675, -0.6561, 0.959323, 1.103465, -259.564982, 160.860678)" xlink:href="#gradient-8"/>
    <linearGradient id="gradient-9-0" gradientUnits="userSpaceOnUse" x1="387.785" y1="267.64" x2="387.785" y2="354.323" gradientTransform="matrix(0.076058, -0.9971, 0.388158, 0.029608, 246.884155, 672.812866)" xlink:href="#gradient-9"/>
    <linearGradient id="gradient-10-0" gradientUnits="userSpaceOnUse" x1="164.662" y1="190.784" x2="164.662" y2="262.676" gradientTransform="matrix(0.946548, -0.322566, 0.360296, 1.057268, -88.417643, 35.668036)" xlink:href="#gradient-10"/>
    <linearGradient id="gradient-11-0" gradientUnits="userSpaceOnUse" x1="148.216" y1="307.302" x2="148.216" y2="334.583" gradientTransform="matrix(0.999758, -0.022002, 0.018038, 0.819622, -11.178367, 65.339005)" xlink:href="#gradient-11"/>
  </defs>
  <path style="fill-rule: nonzero; paint-order: fill; fill: url(#gradient-1-0);" d="M 276.226 251.235 C 276.226 251.235 245.064 239.175 245.631 236.042 C 246.205 232.875 270.876 231.164 280.371 232.465 C 287.35 233.421 291.334 234.892 297.927 239.373 C 310.158 247.686 335.332 289.035 342.271 286.807 C 346.789 285.357 345.647 259.495 345.852 259.517 C 346.061 259.54 345.036 277.566 343.404 287.94 C 341.381 300.801 338.157 316.606 333.572 330.67 C 328.837 345.196 323.036 360.344 315.181 373.674 C 307.316 387.021 298.331 400.036 286.401 410.694 C 273.465 422.251 256.766 432.976 239.35 439.435 C 220.86 446.292 182.051 450.265 178.022 449.453 C 177.544 449.357 177.415 449.238 177.281 448.989 C 177.111 448.673 177.055 448.344 177.318 447.582 C 179.703 440.674 229.87 387.542 246.335 354.627 C 261.793 323.727 280.767 263.365 275.416 256.822 C 273.896 254.963 267.474 258.269 267.213 257.555 C 266.911 256.729 276.226 251.235 276.226 251.235 C 276.226 251.235 276.226 251.235 276.226 251.235" bx:d="M 276.226 251.235 R 245.631 236.042 R 280.371 232.465 R 297.927 239.373 R 342.271 286.807 R 345.852 259.517 R 343.404 287.94 R 333.572 330.67 R 315.181 373.674 R 286.401 410.694 R 239.35 439.435 R 178.022 449.453 R 177.281 448.989 R 177.318 447.582 R 246.335 354.627 R 275.416 256.822 R 267.213 257.555 R 276.226 251.235 Z 1@2633a13b"/>
  <path style="fill: url(#gradient-2-0);" d="M 77.178 314.91 C 77.178 314.91 26.992 340.398 22.037 342.002 C 21.307 342.238 21.088 342.366 20.721 342.227 C 20.337 342.081 19.983 341.734 19.807 341.084 C 19.272 339.107 20.153 333.279 21.777 327.691 C 24.805 317.275 31.157 300.307 40.952 284.731 C 55.199 262.075 107.438 214.833 105.292 208.79 C 104.781 207.352 99.777 207.647 99.752 207.75 C 99.717 207.899 106.59 209.689 111.047 211.013 C 117.549 212.943 125.656 215.172 134.972 218.31 C 148.365 222.821 180.996 226.016 183.469 236.217 C 186.445 248.494 137.838 287.98 132.91 291.435 C 132.216 291.922 132.326 291.675 131.537 292.005 C 126.567 294.084 77.178 314.91 77.178 314.91 C 77.178 314.91 77.178 314.91 77.178 314.91" bx:d="M 77.178 314.91 R 22.037 342.002 R 20.721 342.227 R 19.807 341.084 R 21.777 327.691 R 40.952 284.731 R 105.292 208.79 R 99.752 207.75 R 111.047 211.013 R 134.972 218.31 R 183.469 236.217 R 132.91 291.435 R 131.537 292.005 R 77.178 314.91 Z 1@e4b0d66f"/>
  <path style="fill: url(#gradient-3-0);" d="M 49.302 221.286 C 49.302 221.286 47.953 222.593 47.376 223.456 C 46.693 224.478 45.699 227.151 45.6 227.109 C 45.319 226.991 51.945 206.427 56.566 196.559 C 61.294 186.461 66.887 176.815 73.783 167.254 C 81.33 156.79 90.27 145.983 100.582 136.608 C 111.613 126.579 124.826 116.469 138.409 109.406 C 151.885 102.398 170.3 97.694 181.712 94.301 C 189.002 92.133 192.636 90.762 199.883 89.806 C 210.284 88.433 227.236 88.123 238.437 89.037 C 247.217 89.753 261.1 90.02 261.734 93.343 C 262.648 98.134 231.29 109.693 220.006 119.49 C 210.365 127.86 208.053 138.55 196.831 146.968 C 179.948 159.633 146.835 167.66 122.438 179.926 C 97.646 192.391 49.302 221.286 49.302 221.286 C 49.302 221.286 49.302 221.286 49.302 221.286 C 49.302 221.286 49.302 221.286 49.302 221.286" bx:d="M 49.302 221.286 R 47.376 223.456 R 45.6 227.109 R 56.566 196.559 R 73.783 167.254 R 100.582 136.608 R 138.409 109.406 R 181.712 94.301 R 199.883 89.806 R 238.437 89.037 R 261.734 93.343 R 220.006 119.49 R 196.831 146.968 R 122.438 179.926 R 49.302 221.286 R 49.302 221.286 Z 1@12b96083"/>
  <path style="fill: url(#gradient-4-0);" d="M 308.567 228.962 C 308.567 228.962 110.004 166.042 97.463 178.482 C 93.68 182.235 95.957 191.741 101.901 197.73 C 120.109 216.077 279.599 236.706 282.211 240.753 C 282.36 240.984 282.033 241.183 282.097 241.345 C 282.164 241.517 282.588 241.45 282.641 241.743 C 283.199 244.81 236.751 295.492 242.151 303.661 C 247.57 311.859 296.637 298.223 315.509 290.575 C 329.117 285.06 335.333 275.892 347.627 268.904 C 362.596 260.395 384.508 254.455 399.596 244.422 C 413.425 235.226 426.197 221.203 435.448 212.116 C 441.704 205.971 445.526 201.874 450.514 195.987 C 456.028 189.479 462.216 181.726 466.933 174.589 C 471.235 168.08 476.133 161.678 477.954 155.049 C 479.594 149.079 479.684 142.728 478.368 136.857 C 476.993 130.72 473.504 123.748 469.479 119.078 C 465.766 114.77 461.271 111.399 455.628 109.362 C 448.699 106.861 438.907 106.197 430.201 107.295 C 420.495 108.519 409.177 112.464 400.226 117.631 C 391.345 122.758 384.654 129.721 376.659 138.097 C 366.531 148.708 356.668 177.397 345.605 177.412 C 332.957 177.43 322.238 133.228 304.871 126.139 C 287.994 119.25 265.594 131.46 243.508 133.81 C 217.704 136.556 161.641 131.348 159.416 141.2 C 156.23 155.306 308.567 228.962 308.567 228.962 C 308.567 228.962 308.567 228.962 308.567 228.962" bx:d="M 308.567 228.962 R 97.463 178.482 R 101.901 197.73 R 282.211 240.753 R 282.097 241.345 R 282.641 241.743 R 242.151 303.661 R 315.509 290.575 R 347.627 268.904 R 399.596 244.422 R 435.448 212.116 R 450.514 195.987 R 466.933 174.589 R 477.954 155.049 R 478.368 136.857 R 469.479 119.078 R 455.628 109.362 R 430.201 107.295 R 400.226 117.631 R 376.659 138.097 R 345.605 177.412 R 304.871 126.139 R 243.508 133.81 R 159.416 141.2 R 308.567 228.962 Z 1@1eac8931"/>
  <path style="fill: url(#gradient-5-0);" d="M 80.049 190.987 C 80.049 190.987 49.387 218.611 51.449 227.188 C 53.234 234.614 70.392 237.247 82.882 241.618 C 99.879 247.566 125.422 254.473 145.055 257.022 C 162.232 259.252 178.663 258.252 194.079 257.776 C 207.879 257.35 220.539 256.864 233.254 254.75 C 245.665 252.686 260.62 247.788 269.506 245.4 C 274.695 244.006 280.829 242.503 281.8 241.962 C 281.951 241.878 281.954 241.869 282.026 241.754 C 282.183 241.502 282.243 240.977 282.441 240.339 C 282.861 238.988 282.627 236.225 284.503 234.047 C 288.998 228.829 308.366 225.151 318.458 216.996 C 329.577 208.011 343.489 194.237 347.348 181.039 C 350.967 168.662 348.667 151.574 342.981 140.708 C 337.579 130.385 325.659 123.535 315.322 116.716 C 304.491 109.571 291.423 103.418 279.149 99.162 C 267.448 95.105 253.744 88.017 243.457 91.339 C 232.587 94.849 218.223 121.446 216.241 121.727 C 216.03 121.757 216.022 121.536 215.849 121.482 C 215.58 121.399 215.276 121.422 214.737 121.433 C 213.296 121.462 210.038 121.669 206.808 122.108 C 201.642 122.81 193.254 124.178 186.802 125.859 C 180.539 127.491 175.043 129.441 168.625 131.972 C 161.081 134.947 152.428 138.84 144.504 142.94 C 136.397 147.135 128.223 151.829 120.55 156.919 C 112.914 161.985 105.308 167.763 98.57 173.396 C 92.345 178.601 83.693 186.944 81.402 189.371 C 80.779 190.031 80.288 190.501 80.294 190.708 C 80.296 190.773 80.418 190.794 80.41 190.832 C 80.398 190.89 80.049 190.987 80.049 190.987 C 80.049 190.987 80.049 190.987 80.049 190.987" bx:d="M 80.049 190.987 R 51.449 227.188 R 82.882 241.618 R 145.055 257.022 R 194.079 257.776 R 233.254 254.75 R 269.506 245.4 R 281.8 241.962 R 282.026 241.754 R 282.441 240.339 R 284.503 234.047 R 318.458 216.996 R 347.348 181.039 R 342.981 140.708 R 315.322 116.716 R 279.149 99.162 R 243.457 91.339 R 216.241 121.727 R 215.849 121.482 R 214.737 121.433 R 206.808 122.108 R 186.802 125.859 R 168.625 131.972 R 144.504 142.94 R 120.55 156.919 R 98.57 173.396 R 81.402 189.371 R 80.294 190.708 R 80.41 190.832 R 80.049 190.987 Z 1@86387e74"/>
  <path style="fill: url(#gradient-6-0);" d="M 129.354 114.531 C 129.354 114.531 140.211 108.102 146.655 105.037 C 154.322 101.391 163.906 97.339 172.531 94.524 C 180.768 91.836 188.484 89.683 197.242 88.346 C 206.885 86.874 217.7 86.301 228.068 86.56 C 238.67 86.825 250.749 88.081 260.167 90.033 C 267.839 91.623 279.208 95.628 280.63 96.383 C 280.814 96.481 280.763 96.488 280.911 96.608 C 281.482 97.073 283.535 98.549 285.053 100.036 C 287.283 102.22 288.657 105.721 292.63 108.819 C 300.493 114.951 322.195 120.776 333.223 129.22 C 342.877 136.612 354.394 146.108 356.431 155.173 C 358.155 162.842 353.208 171.129 349.366 179.069 C 344.89 188.318 336.249 198.714 329.883 206.712 C 324.586 213.367 320.485 219.074 314.26 224.152 C 307.49 229.674 296.311 235.373 290.339 238.109 C 287.016 239.632 282.965 240.081 282.23 240.897 C 282.023 241.127 282.103 241.564 282.077 241.56 C 281.969 241.543 282.924 234.484 282.982 230.278 C 283.055 224.952 282.752 218.034 282.027 212.155 C 281.328 206.488 280.391 201.462 278.797 195.607 C 276.916 188.696 274.513 180.664 270.994 173.456 C 267.246 165.779 262.849 157.999 256.623 151.022 C 249.511 143.053 239.366 134.786 229.665 129.076 C 220.295 123.56 211.502 120.051 199.554 117.021 C 183.382 112.921 152.353 108.625 140.533 110.154 C 135.22 110.841 129.354 114.531 129.354 114.531 C 129.354 114.531 129.354 114.531 129.354 114.531 C 129.354 114.531 129.354 114.531 129.354 114.531" bx:d="M 129.354 114.531 R 146.655 105.037 R 172.531 94.524 R 197.242 88.346 R 228.068 86.56 R 260.167 90.033 R 280.63 96.383 R 280.911 96.608 R 285.053 100.036 R 292.63 108.819 R 333.223 129.22 R 356.431 155.173 R 349.366 179.069 R 329.883 206.712 R 314.26 224.152 R 290.339 238.109 R 282.23 240.897 R 282.077 241.56 R 282.982 230.278 R 282.027 212.155 R 278.797 195.607 R 270.994 173.456 R 256.623 151.022 R 229.665 129.076 R 199.554 117.021 R 140.533 110.154 R 129.354 114.531 R 129.354 114.531 Z 1@1dd9c9b7"/>
  <path style="fill: url(#gradient-7-0);" d="M 280.627 96.379 C 280.627 96.379 280.785 96.722 280.974 97.058 C 281.569 98.118 283.459 101.13 284.94 103.516 C 286.793 106.501 289.086 109.716 291.243 113.567 C 293.974 118.445 297.29 124.551 299.705 130.611 C 302.28 137.071 304.669 144.485 306.048 151.282 C 307.339 157.643 308.215 163.317 307.988 170.121 C 307.717 178.245 305.615 188.505 303.436 196.737 C 301.465 204.184 299.025 210.819 295.899 217.507 C 292.734 224.279 286.995 232.727 284.516 237.099 C 283.279 239.279 281.563 241.678 281.787 242.03 C 281.855 242.136 282.107 242.007 282.303 241.994 C 282.563 241.977 282.754 242.047 283.21 241.94 C 284.869 241.552 290.054 239.422 294.286 237.249 C 300.498 234.059 309.554 229.368 316.412 223.743 C 323.789 217.692 330.72 209.17 336.746 201.691 C 342.339 194.749 348.439 186.17 351.581 180.533 C 353.479 177.127 354.753 173.341 355.301 171.865 C 355.484 171.371 355.509 171.195 355.619 170.858 C 355.73 170.518 355.807 170.346 355.964 169.834 C 356.42 168.346 357.713 163.635 358.396 161.041 C 358.935 158.993 359.699 156.644 359.775 155.527 C 359.808 155.048 359.748 154.884 359.662 154.489 C 359.542 153.933 359.476 153.349 359.017 152.53 C 357.97 150.659 354.861 147.328 352.065 144.32 C 348.309 140.28 343.142 135.068 338.203 130.734 C 333.091 126.248 327.585 121.858 321.842 117.903 C 316.006 113.884 309.584 110.099 303.439 106.843 C 297.615 103.757 290.094 100.635 285.939 98.744 C 283.651 97.703 280.624 96.322 280.602 96.357 C 280.6 96.36 280.627 96.379 280.627 96.379 C 280.627 96.379 280.627 96.379 280.627 96.379" bx:d="M 280.627 96.379 R 280.974 97.058 R 284.94 103.516 R 291.243 113.567 R 299.705 130.611 R 306.048 151.282 R 307.988 170.121 R 303.436 196.737 R 295.899 217.507 R 284.516 237.099 R 281.787 242.03 R 282.303 241.994 R 283.21 241.94 R 294.286 237.249 R 316.412 223.743 R 336.746 201.691 R 351.581 180.533 R 355.301 171.865 R 355.619 170.858 R 355.964 169.834 R 358.396 161.041 R 359.775 155.527 R 359.662 154.489 R 359.017 152.53 R 352.065 144.32 R 338.203 130.734 R 321.842 117.903 R 303.439 106.843 R 285.939 98.744 R 280.602 96.357 R 280.627 96.379 Z 1@9a18ce9e"/>
  <path style="fill: url(#gradient-8-0);" d="M 46.218 225.651 C 46.218 225.651 45.616 226.515 45.579 227.029 C 45.535 227.642 45.74 228.323 46.198 229.1 C 47.031 230.512 49.281 232.397 51.192 234.193 C 53.545 236.405 56.57 238.831 59.371 241.278 C 62.352 243.883 65.399 246.701 68.569 249.383 C 71.844 252.155 74.609 254.424 78.726 257.636 C 84.864 262.424 93.157 269.539 102.013 275.073 C 112.425 281.579 125.797 288.381 137.784 293.435 C 149.149 298.226 160.27 301.994 172.05 304.932 C 184.091 307.935 197.24 310.03 209.297 311.14 C 220.529 312.174 231.564 312.109 242.061 311.745 C 251.808 311.407 260.133 310.912 270.207 309.27 C 282.195 307.317 296.992 303.647 309.113 299.941 C 320.129 296.573 329.485 293.633 340.063 288.357 C 352.456 282.176 365.553 273.055 378.317 263.988 C 392.06 254.226 408.013 242.312 419.59 231.417 C 429.266 222.312 437.984 211.178 444.048 204.022 C 447.816 199.576 453.176 193.256 452.932 192.972 C 452.864 192.893 452.456 193.211 451.985 193.523 C 450.366 194.597 445.29 198.929 441.626 201.312 C 437.858 203.763 433.895 205.869 429.652 207.991 C 425.064 210.285 420.985 212.104 415.005 214.508 C 405.908 218.165 392.45 223.522 380.094 227.086 C 366.659 230.961 352.504 234.035 337.238 236.479 C 320.06 239.229 288.786 240.668 281.978 242.117 C 280.391 242.455 280.562 242.812 279.11 243.06 C 274.973 243.766 265.045 244.186 254.614 243.564 C 235.927 242.449 199.449 237.725 176.741 232.61 C 158.499 228.501 143.949 223.448 128.308 217.45 C 112.908 211.545 92.84 196.353 83.573 196.987 C 79.167 197.288 77.805 200.086 74.183 202.948 C 68.122 207.737 57.171 221.958 51.867 224.667 C 49.591 225.829 46.218 225.651 46.218 225.651 C 46.218 225.651 46.218 225.651 46.218 225.651 C 46.218 225.651 46.218 225.651 46.218 225.651" bx:d="M 46.218 225.651 R 45.579 227.029 R 46.198 229.1 R 51.192 234.193 R 59.371 241.278 R 68.569 249.383 R 78.726 257.636 R 102.013 275.073 R 137.784 293.435 R 172.05 304.932 R 209.297 311.14 R 242.061 311.745 R 270.207 309.27 R 309.113 299.941 R 340.063 288.357 R 378.317 263.988 R 419.59 231.417 R 444.048 204.022 R 452.932 192.972 R 451.985 193.523 R 441.626 201.312 R 429.652 207.991 R 415.005 214.508 R 380.094 227.086 R 337.238 236.479 R 281.978 242.117 R 279.11 243.06 R 254.614 243.564 R 176.741 232.61 R 128.308 217.45 R 83.573 196.987 R 74.183 202.948 R 51.867 224.667 R 46.218 225.651 R 46.218 225.651 Z 1@d43daf10"/>
  <path style="fill: url(#gradient-9-0);" d="M 358.46 295.454 C 358.46 295.454 358.505 295.424 358.505 295.424 C 358.505 295.424 357.825 295.701 357.792 295.9 C 357.756 296.113 358.043 296.315 358.386 296.679 C 359.528 297.892 363.898 301.229 366.636 303.789 C 369.563 306.526 372.652 309.316 375.377 312.653 C 378.345 316.287 380.954 320.334 383.608 324.914 C 386.709 330.265 390.291 338.199 392.545 342.986 C 394.009 346.094 395.094 348.572 396.019 350.746 C 396.68 352.301 396.958 354.535 397.646 354.778 C 398.069 354.927 398.601 354.466 399.081 353.976 C 399.983 353.054 400.991 350.663 401.802 348.846 C 402.664 346.913 403.323 345.135 404.064 342.683 C 405.113 339.211 406.218 334.43 407.129 329.874 C 408.154 324.746 409.244 319.131 409.785 313.403 C 410.367 307.238 410.61 300.915 410.335 294.081 C 410.023 286.312 407.862 271.926 407.622 269.25 C 407.576 268.735 407.659 268.598 407.557 268.327 C 407.459 268.068 407.328 267.717 407.044 267.652 C 406.463 267.52 405.205 268.491 403.882 269.273 C 401.424 270.726 397.272 273.805 393.721 276.137 C 389.878 278.661 385.699 281.516 381.615 283.865 C 377.651 286.145 373.52 288.097 369.584 290.062 C 365.837 291.932 359.133 295.061 358.544 295.398 C 358.491 295.429 358.46 295.454 358.46 295.454 C 358.46 295.454 358.46 295.454 358.46 295.454" bx:d="M 358.46 295.454 R 358.505 295.424 R 357.792 295.9 R 358.386 296.679 R 366.636 303.789 R 375.377 312.653 R 383.608 324.914 R 392.545 342.986 R 396.019 350.746 R 397.646 354.778 R 399.081 353.976 R 401.802 348.846 R 404.064 342.683 R 407.129 329.874 R 409.785 313.403 R 410.335 294.081 R 407.622 269.25 R 407.557 268.327 R 407.044 267.652 R 403.882 269.273 R 393.721 276.137 R 381.615 283.865 R 369.584 290.062 R 358.544 295.398 R 358.46 295.454 Z 1@d197afd9"/>
  <path style="fill: url(#gradient-10-0);" d="M 80.31 190.626 C 80.31 190.626 80.327 190.715 80.366 190.768 C 80.447 190.877 80.607 190.978 80.872 191.169 C 81.716 191.778 84.087 193.399 86.337 194.753 C 89.756 196.81 94.206 199.459 99.558 202.025 C 107.29 205.731 119.407 210.469 128.672 214.03 C 136.986 217.226 143.861 219.823 152.553 222.554 C 162.732 225.751 174.887 229.103 186.1 231.691 C 197.173 234.246 208.457 236.379 219.409 238.017 C 229.944 239.592 240.4 240.79 250.594 241.435 C 260.346 242.052 274.748 241.856 279.297 241.928 C 280.715 241.951 281.367 241.985 282.088 241.969 C 282.544 241.959 283.184 241.816 283.204 241.902 C 283.254 242.117 279.108 243.631 276.814 244.566 C 274.158 245.648 271.217 246.899 268.186 248.001 C 264.888 249.201 261.579 250.362 257.743 251.448 C 253.161 252.745 248.405 253.866 242.478 255.072 C 234.341 256.728 223.229 258.784 213.326 260.031 C 203.152 261.312 193.017 262.347 182.216 262.59 C 170.511 262.854 158.051 262.539 145.581 261.233 C 132.384 259.851 117.216 257.219 105.125 254.218 C 94.978 251.7 85.713 248.601 77.63 245.264 C 70.882 242.479 65.204 239.269 59.648 236.173 C 54.643 233.384 46.641 229.855 45.697 227.644 C 45.347 226.824 45.898 226.186 46.178 225.444 C 46.498 224.595 46.751 224.011 47.607 222.862 C 49.982 219.672 58.17 211.894 63.505 206.623 C 68.737 201.454 77.179 193.491 79.306 191.524 C 79.834 191.036 80.31 190.626 80.31 190.626 C 80.31 190.626 80.31 190.626 80.31 190.626" bx:d="M 80.31 190.626 R 80.366 190.768 R 80.872 191.169 R 86.337 194.753 R 99.558 202.025 R 128.672 214.03 R 152.553 222.554 R 186.1 231.691 R 219.409 238.017 R 250.594 241.435 R 279.297 241.928 R 282.088 241.969 R 283.204 241.902 R 276.814 244.566 R 268.186 248.001 R 257.743 251.448 R 242.478 255.072 R 213.326 260.031 R 182.216 262.59 R 145.581 261.233 R 105.125 254.218 R 77.63 245.264 R 59.648 236.173 R 45.697 227.644 R 46.178 225.444 R 47.607 222.862 R 63.505 206.623 R 79.306 191.524 R 80.31 190.626 Z 1@7478264c"/>
  <path style="fill: url(#gradient-11-0);" d="M 129.289 309.69 C 129.289 309.69 130.1079528972029 309.02287018339786 130.543 309.028 C 131.0213871942854 309.0336408571756 131.28985649377285 309.46674433969895 132.04 309.864 C 134.2061572321535 311.0111381334795 140.06299080295625 314.26804017101443 144.821 316.272 C 150.470652651893 318.6514987553092 157.18777661637213 321.00753030628977 163.875 322.852 C 171.0394576281959 324.82810042449483 183.9053450313935 326.66851419199446 186.525 327.579 C 187.1050947550394 327.78061740690714 187.5316039222514 327.8989048785437 187.54 328.086 C 187.54870137827243 328.27989832651036 187.08044795853118 328.47198807825697 186.503 328.726 C 184.40659864028365 329.6481799648938 176.48465197261254 331.95089890087434 171.049 333.101 C 165.15885233098538 334.3472654603861 158.8160655459709 335.25108060592146 152.377 335.754 C 145.54728588094744 336.2874307691018 138.65894027318026 336.52295647129415 131.162 336.067 C 122.62245193677666 335.547633157065 109.32499625078702 334.45259185281714 103.888 332.328 C 101.24438970017665 331.29496767002263 98.77239306153511 329.9711043215531 98.549 328.606 C 98.36061550407602 327.4548250810824 100.06629269692004 325.95964053986535 101.304 324.887 C 102.77947046691177 323.6083055669581 104.62052966260373 323.09274593573815 107.092 321.763 C 111.48657951289667 319.3985474884196 121.58203662172453 314.07377172880524 125.418 311.934 C 127.19733234828477 310.94145531707335 129.289 309.69 129.289 309.69 C 129.28899999999996 309.68999999999994 129.289 309.69 129.289 309.69 C 129.289 309.69 129.28899999999996 309.69 129.289 309.69" bx:d="M 129.289 309.69 R 130.543 309.028 R 132.04 309.864 R 144.821 316.272 R 163.875 322.852 R 186.525 327.579 R 187.54 328.086 R 186.503 328.726 R 171.049 333.101 R 152.377 335.754 R 131.162 336.067 R 103.888 332.328 R 98.549 328.606 R 101.304 324.887 R 107.092 321.763 R 125.418 311.934 R 129.289 309.69 R 129.289 309.69 Z 1@dbda3211"/>
  <ellipse style="fill: rgb(81, 80, 141);" cx="432.641" cy="135.398" rx="14.153" ry="14.153" transform="matrix(0.999572, 0.029268, -0.029267, 0.999572, 5.58521, -9.877675)" bx:origin="0.34 0.732"/>
</svg>